<?xml version="1.0" standalone="no"?>
<!DOCTYPE svg PUBLIC "-//W3C//DTD SVG 20010904//EN"
 "http://www.w3.org/TR/2001/REC-SVG-20010904/DTD/svg10.dtd">
<svg version="1.0" xmlns="http://www.w3.org/2000/svg"
 width="347.000000pt" height="140.000000pt" viewBox="0 0 347.000000 140.000000"
 preserveAspectRatio="xMidYMid meet">
<metadata>
Created by potrace 1.15, written by Peter Selinger 2001-2017
</metadata>
<g transform="translate(0.000000,140.000000) scale(0.100000,-0.100000)"
fill="#000000" stroke="none">
<path d="M2623 1193 l-23 -4 0 -405 0 -404 115 0 115 0 0 215 0 215 26 10 c35
14 118 12 132 -2 9 -9 12 -73 12 -225 l0 -213 115 0 115 0 0 228 c0 125 -4
254 -10 287 -12 72 -39 99 -117 115 -69 15 -158 -7 -225 -55 -26 -19 -49 -35
-51 -35 -1 0 -1 63 1 140 l3 140 -93 -1 c-51 -1 -103 -4 -115 -6z"/>
<path d="M1446 1149 c-7 -33 -54 -742 -50 -750 4 -7 484 147 496 159 6 6 -404
577 -437 610 -2 3 -6 -6 -9 -19z"/>
<path d="M508 1145 c-186 -51 -278 -181 -278 -393 1 -243 145 -383 394 -383
96 0 182 13 218 32 18 10 20 17 14 63 -3 28 -6 61 -6 72 0 21 -4 21 -129 20
-117 -1 -132 1 -158 20 -56 42 -68 77 -68 204 0 121 12 173 46 190 10 6 78 10
152 10 l135 0 6 38 c3 20 7 55 8 77 l3 40 -50 11 c-67 16 -229 15 -287 -1z"/>
<path d="M1309 1059 c-48 -57 -150 -182 -228 -278 l-140 -175 200 -103 c111
-58 203 -102 205 -100 6 6 55 716 52 741 -2 15 -25 -7 -89 -85z"/>
<path d="M2176 1008 c-38 -4 -80 -14 -95 -21 -39 -18 -74 -97 -74 -166 0 -114
56 -169 228 -223 33 -11 41 -18 43 -42 l4 -29 -114 6 c-62 3 -120 7 -128 9
-14 3 -34 -55 -42 -120 -3 -26 0 -28 57 -39 86 -18 239 -17 303 2 60 18 119
66 138 112 8 18 14 59 14 92 0 53 -4 64 -31 96 -38 43 -68 59 -174 95 -70 24
-80 30 -80 51 l0 24 121 -2 121 -2 7 46 c13 99 12 101 -46 107 -113 11 -186
13 -252 4z"/>
</g>
</svg>
