<svg version="1.2" xmlns="http://www.w3.org/2000/svg" viewBox="0 0 430 59" width="430" height="59">
	<title>CashMosaic-svg</title>
	<defs>
		<clipPath clipPathUnits="userSpaceOnUse" id="cp1">
			<path d="m0 0h430v59h-430z"/>
		</clipPath>
	</defs>
	<style>
		.s0 { fill: #7cc45d } 
		.s1 { fill: #7ec560 } 
		.s2 { fill: #c2e443 } 
		.s3 { fill: #7fc561 } 
		.s4 { fill: #7bc35c } 
		.s5 { fill: #7bc45d } 
		.s6 { fill: #81c664 } 
		.s7 { fill: #c5e64d } 
		.s8 { fill: #c3e54b } 
		.s9 { fill: #9dd34e } 
		.s10 { fill: #9ed34d } 
		.s11 { fill: #9dd34f } 
		.s12 { fill: #9ed34e } 
		.s13 { fill: #9ed44d } 
		.s14 { fill: #c3e547 } 
		.s15 { fill: #c3e44a } 
		.s16 { fill: #c1e444 } 
	</style>
	<g id="Prancheta 1" clip-path="url(#cp1)">
		<path id="Layer" class="s0" d="m14.9 33c4.7 12.1 13.9 14.3 26.1 6.3 2.8 2.3 5.8 4.7 8.7 7.1-9.7 12.3-27.7 13.6-38.9 2.9-11.8-11.1-11.6-29.2 0.3-39.8 11.9-10.7 29.5-8.8 39.7 4.4-3.1 2.2-6.2 4.4-9.4 6.8-5.8-5.4-12.2-8-19.6-3.9-5.7 3.3-8 8.9-6.9 16.2z"/>
		<path id="Layer" fill-rule="evenodd" class="s0" d="m294.2 40.6c-2.3 10-9.3 15.9-18.7 16-8 0.2-15.9-5.9-18-13.8-2.4-8.5 1.5-17.5 9.2-21.6 7.9-4.2 17.1-2.6 23.2 4.1 3.8 4.3 4.7 9.4 4.3 15.3zm-16.5-10c-6.3-0.7-10.7 3.2-9.3 8.6 0.9 3.5 3.2 6.4 6.9 5.7 2.7-0.4 6-2.4 7.2-4.7 2-3.8 0-7.3-4.8-9.6z"/>
		<path id="Layer" class="s0" d="m79.9 55.2c-13.4 3.4-24.1-2.5-26-14.2-1.7-10.6 5.3-20.4 15.6-21.9 10.9-1.6 19.9 5.5 21.1 17.5-3.8 0.4-7.2 0.4-10.6 0.1-2.7-5.8-5.8-7.6-10-6-4 1.5-6.3 5.3-4.7 9 0.9 2.2 3.2 4.4 5.4 5.1 3.9 1.4 6.9-1 9.1-3.9 0.2 4.7 0.2 9 0.3 13.5-0.1 0.4-0.1 0.6-0.2 0.8z"/>
		<path id="Layer" class="s0" d="m357.1 55.6c-7.9 2.5-14.9 0.5-20.3-5.5-4.9-5.5-6-12.1-3.4-19.1 2.8-7.6 10.4-12.4 18.8-12 7.8 0.3 14.7 6 16.8 13.9 0.3 1.1 0.5 2.2 0.3 3.7-3.9 0.4-7.4 0.4-11 0-2.1-5.4-5.4-7.4-9.4-6-4.2 1.4-6.3 5.5-5 9.5 1.2 3.8 5.2 6.1 9.1 4.7 1.8-0.6 3.3-2.4 5-3.3 0 4.8 0 9.1-0.2 13.5-0.4 0.2-0.6 0.3-0.7 0.6z"/>
		<path id="Layer" class="s1" d="m304.9 44.3c3.7 1.3 7.1 2.4 10.5 3.6q0.5-1.1 1.1-2.2c-1.2-0.9-2.3-2.1-3.7-2.8-2.5-1.2-5.2-1.9-7.7-3.2-4.2-2.2-5.5-6-5.2-10.5 0.4-4.3 2.7-7.2 6.5-8.8 7.1-2.9 13.9-1.8 20.3 3.1-1.6 2.7-3.2 5.2-4.5 7.4-3.8-1.2-7.2-2.2-10.5-3.2q-0.5 1.1-0.9 2.2c1.3 0.9 2.5 1.9 3.9 2.6 2.7 1.3 5.7 2.1 8.2 3.7 7 4.3 6.7 13.8-0.4 18-6.1 3.7-16.9 3.1-22.1-1.6-0.7-0.6-1.1-2.5-0.7-3.2 1.3-1.9 3.2-3.5 5.2-5.1z"/>
		<path id="Layer" class="s1" d="m96.7 50.4c1.5-2.3 3-4.4 4.1-6 4 1.1 7.4 2.1 10.9 2.8 0.7 0.1 1.6-0.8 3.9-2-3.6-1.4-6.1-2.1-8.1-3.4-3.3-2.1-7.4-4-9.1-7.1-3.6-6.6 1.6-14.6 9.6-15.6 5.8-0.8 11.2 0.3 16.3 4.6-1.5 2.4-3.1 4.9-4.8 7.6-2-1-3.7-2.2-5.5-2.7-1.6-0.4-3.3-0.1-5-0.1q-0.3 0.9-0.6 1.7c1.8 0.9 3.7 1.8 5.4 2.9 3.4 2 7.5 3.5 9.9 6.3 4.7 5.7 0.6 14.7-7.3 16.5-7.4 1.7-14.5 1-19.7-5.5z"/>
		<path id="Layer" class="s0" d="m416.3 19.3c4.6 1.5 8.8 3.1 11.3 7.9-2.3 1.6-4.3 3.4-6.6 4.5-1.1 0.6-3.1 0.5-4.2-0.1-3.7-2.1-7.1-1.9-9.9 1.2-2.4 2.7-2.9 6.1-0.6 9.2 2.7 3.7 6.2 3.7 10.2 2.1 1.4-0.6 3.6-0.1 5.1 0.7 2 1 3.7 2.6 5.5 4-5.3 7.2-14.1 9.6-21.8 6.4-8.3-3.5-12.9-12-11.4-21.1 1.4-8.1 8.8-14.7 17-15.1 1.7-0.1 3.3 0.1 5.4 0.3z"/>
		<path id="Layer" class="s2" d="m209.1 3.9c4.7 8.6 9.4 17.1 14.5 26.3 4.8-8.9 9.3-17.3 14.1-25.5 0.4 6.7 0.4 13 0.4 19.8 0 1.3-0.1 2.3-0.1 3.2-2.8 5-5.9 9.9-8.4 15.1-1.5 3-3.6 3.3-6.4 3.4-3 0.2-4.5-1.1-5.7-3.6-2.5-5-5.2-10-8.2-15.6-0.3-1.3-0.4-2.1-0.4-3.4 0.1-6.9 0.1-13.3 0.2-19.7z"/>
		<path id="Layer" class="s3" d="m143 20c8.2-2.2 15.6-1.2 21.2 5.8 1.6 2 3.3 4.5 3.6 6.9 0.7 7.6 0.8 15.2 1.2 23-4.4 0-7.8 0-12 0 0-5.7 0-11.3 0.1-16.9 0-3.6-0.9-6.6-4.7-7.9-3.7-1.4-6.5 0.1-9 2.7-0.4-4.4-0.5-8.6-0.5-12.9 0-0.3 0.1-0.7 0.1-0.7z"/>
		<path id="Layer" class="s4" d="m208.9 24.1c0 0.8 0.1 1.6 0.2 2.8 0 9.6 0 18.9 0 28.6-4.1 0-7.8 0-12.3 0 0-16.5 0-33 0.4-49.8 1.8 2.5 3.1 5.3 4.7 8 2.2 3.5 4.6 6.9 7 10.4z"/>
		<path id="Layer" class="s5" d="m238 28.2c0-1.4 0.1-2.4 0.5-3.8 1.5-2 2.8-3.4 3.7-5 2.7-4.5 5.3-9 7.9-13.5 0 16.4 0 32.9 0 49.7-4 0-7.7 0-12.1 0 0-9 0-18 0-27.4z"/>
		<path id="Layer" class="s6" d="m381.1 56c-1.9-0.7-4.6-1.3-4.6-2-0.2-11.3-0.2-22.5-0.2-34 4.1 0 7.5 0 11.3 0 0 12 0 23.7 0 36-2.1 0-4.1 0-6.5 0z"/>
		<path id="Layer" class="s7" d="m143 19.5c0 0.5-0.1 0.9-0.4 1.2-6.5 2.5-9.2 7.6-11.2 13.2 0-10.7 0-21.5 0-32.5 3.8 0 7.2 0 11.5 0 0 5.8 0 11.7 0.1 18.1z"/>
		<path id="Layer" class="s8" d="m142.8 37c0 6.1 0 12.2 0 18.6-3.8 0-7.3 0-11.6 0 0-5.9 0-11.8 0.5-18.1 4-0.5 7.6-0.5 11.1-0.5z"/>
		<path id="Layer" class="s9" d="m358 54.9c0-4.3 0-8.6 0-13.8 0.1-1.9 0.3-3 0.4-4.1 3.5 0 7 0 10.9 0 0.5 1.4 0.6 2.8 0.4 4.9-2.2 6.5-5.5 11.1-11.7 13z"/>
		<path id="Layer" class="s10" d="m250.2 5.6c-2.7 4.8-5.3 9.3-8 13.8-0.9 1.6-2.2 3-3.7 4.6-0.4-6.3-0.4-12.6-0.5-19.5 3.9-0.8 7.8-1.1 11.7-1.3 0.2 0 0.4 1.3 0.5 2.4z"/>
		<path id="Layer" class="s11" d="m80.1 54.1c-0.1-4.2-0.1-8.5-0.3-13.5 0-1.8 0.2-2.7 0.3-3.6 3.3 0 6.7 0 10.5 0 0.5 1.8 0.5 3.5 0.2 5.9-2.3 5.5-5 9.8-10.7 11.2z"/>
		<path id="Layer" class="s12" d="m208.9 23.6c-2.4-3-4.8-6.4-7-9.9-1.6-2.7-2.9-5.5-4.7-8.5 0.3-0.9 0.8-2.1 1.4-2.1 3.3-0.1 6.6 0.1 10.2 0.5 0.2 6.7 0.2 13.1 0.1 20z"/>
		<path id="Layer" class="s13" d="m142.9 36.7c-3.6 0.3-7.2 0.3-11.2 0.3-0.5-0.8-0.5-1.6-0.4-2.7 2.1-6 4.8-11.1 11.2-13.4 0.4 4.1 0.5 8.3 0.6 12.9 0 1.2-0.1 1.9-0.2 2.9z"/>
		<path id="Layer" class="s14" d="m386.3 13.4c-5 2.3-8.4 1.5-9.9-2.1-1.6-3.5 0-7.2 3.6-8.6 3.3-1.3 7.5 0.5 8.1 4.2 0.3 1.9-1 4.2-1.8 6.5z"/>
		<path id="Layer" class="s15" d="m357.8 55c6.4-2 9.7-6.6 11.8-12.7 0.2 4.1 0.2 8.5 0.2 13.4-4.1 0-7.9 0-12.2-0.1-0.4-0.3-0.2-0.4 0.2-0.6z"/>
		<path id="Layer" class="s16" d="m80.1 54.4c5.7-1.7 8.4-6 10.6-11.2 0.3 3.9 0.3 8 0.3 12.6-3.7 0-7 0-10.8-0.3-0.2-0.5-0.2-0.7-0.1-1.1z"/>
	</g>
</svg>