<svg width="18" height="17" viewBox="0 0 18 17" fill="none" xmlns="http://www.w3.org/2000/svg">
<path d="M0.666656 5.66669V9.00085H1.49999V14H0.666656V16.5H14L16.5 16.5009V16.5H17.3333V14H16.5V9.00085H17.3333V5.66669L8.99999 0.666687L0.666656 5.66669ZM3.99999 14V9.00085H5.66666V14H3.99999ZM8.16666 14V9.00085H9.83332V14H8.16666ZM14 14H12.3333V9.00085H14V14ZM10.6667 5.66669C10.6666 5.88561 10.6234 6.10238 10.5396 6.30462C10.4558 6.50686 10.3329 6.69061 10.1781 6.84537C10.0232 7.00014 9.83943 7.12289 9.63715 7.20661C9.43487 7.29034 9.21808 7.33341 8.99916 7.33335C8.78023 7.3333 8.56346 7.29012 8.36122 7.2063C8.15898 7.12247 7.97524 6.99962 7.82047 6.84478C7.66571 6.68994 7.54296 6.50613 7.45923 6.30385C7.3755 6.10157 7.33244 5.88478 7.33249 5.66585C7.3326 5.22372 7.50835 4.79973 7.82106 4.48717C8.13378 4.17461 8.55785 3.99908 8.99999 3.99919C9.44213 3.9993 9.86611 4.17504 10.1787 4.48776C10.4912 4.80048 10.6668 5.22455 10.6667 5.66669Z" fill="white"/>
</svg>
