<svg width="33" height="24" viewBox="0 0 33 24" fill="none" xmlns="http://www.w3.org/2000/svg">
<path d="M31.875 21.7143H1.125C0.503625 21.7143 0 22.2259 0 22.8571C0 23.4884 0.503625 24 1.125 24H31.875C32.4964 24 33 23.4884 33 22.8571C33 22.2259 32.4964 21.7143 31.875 21.7143ZM31.875 11.0476H1.125C0.503625 11.0476 0 11.5592 0 12.1905C0 12.8217 0.503625 13.3333 1.125 13.3333H31.875C32.4964 13.3333 33 12.8217 33 12.1905C33 11.5592 32.4964 11.0476 31.875 11.0476ZM1.125 2.28571H31.875C32.4964 2.28571 33 1.7741 33 1.14286C33 0.511619 32.4964 0 31.875 0H1.125C0.503625 0 0 0.511619 0 1.14286C0 1.7741 0.503625 2.28571 1.125 2.28571Z" fill="#B3B3B3"/>
</svg>
